<svg version="1.1" xmlns="http://www.w3.org/2000/svg" viewBox="0 0 420 420" width="420" height="420" class="excalidraw-svg"><!-- svg-source:excalidraw --><metadata></metadata><defs><style class="style-fonts">
      </style></defs><rect x="0" y="0" width="420" height="420" fill="#ffffff"></rect><g stroke-linecap="round" transform="translate(10 10) rotate(0 200 200)"><path d="M0 0 C97.74 0, 195.47 0, 400 0 M0 0 C114.49 0, 228.99 0, 400 0 M400 0 C400 104.24, 400 208.47, 400 400 M400 0 C400 87.79, 400 175.59, 400 400 M400 400 C274.75 400, 149.5 400, 0 400 M400 400 C268.2 400, 136.4 400, 0 400 M0 400 C0 260.55, 0 121.09, 0 0 M0 400 C0 258.67, 0 117.33, 0 0" stroke="#1e1e1e" stroke-width="1" fill="none"></path></g><g stroke-linecap="round"><g transform="translate(210 50) rotate(0 0 40)"><path d="M0 0 C0 24.06, 0 48.11, 0 80 M0 0 C0 31.14, 0 62.28, 0 80" stroke="#1e1e1e" stroke-width="1" fill="none"></path></g></g><mask></mask><g stroke-linecap="round"><g transform="translate(230 110) rotate(0 -20 20)"><path d="M0 0 C-14.6 14.6, -29.2 29.2, -40 40 M0 0 C-12.05 12.05, -24.11 24.11, -40 40" stroke="#1e1e1e" stroke-width="1" fill="none"></path></g></g><mask></mask><g stroke-linecap="round"><g transform="translate(190 110) rotate(0 20 20)"><path d="M0 0 C9.13 9.13, 18.25 18.25, 40 40 M0 0 C8.87 8.87, 17.73 17.73, 40 40" stroke="#1e1e1e" stroke-width="1" fill="none"></path></g></g><mask></mask><g stroke-linecap="round"><g transform="translate(130 130) rotate(0 40 60)"><path d="M0 0 C29.07 43.61, 58.15 87.22, 80 120 M0 0 C18.24 27.36, 36.48 54.72, 80 120" stroke="#1e1e1e" stroke-width="1" fill="none"></path></g></g><mask></mask><g stroke-linecap="round"><g transform="translate(210 250) rotate(0 0 60)"><path d="M0 0 C0 33.67, 0 67.33, 0 120 M0 0 C0 39.83, 0 79.65, 0 120" stroke="#1e1e1e" stroke-width="1" fill="none"></path></g></g><mask></mask></svg>